<?xml version="1.0" encoding="utf-8"?>
<!-- Generator: Adobe Illustrator 16.0.0, SVG Export Plug-In . SVG Version: 6.00 Build 0)  -->
<!DOCTYPE svg PUBLIC "-//W3C//DTD SVG 1.1//EN" "http://www.w3.org/Graphics/SVG/1.1/DTD/svg11.dtd">
<svg version="1.1" id="Layer_1" xmlns="http://www.w3.org/2000/svg" xmlns:xlink="http://www.w3.org/1999/xlink" x="0px" y="0px"
	 width="619.602px" height="76.301px" viewBox="0 0 619.602 76.301" enable-background="new 0 0 619.602 76.301"
	 xml:space="preserve">
<g id="svgGroup">
	<path fill="#FFC800" stroke="#000000" stroke-width="0.7087" stroke-linecap="round" d="M181.01,13.205h-8.64l-8.64,43.11
		c-0.092,0.438-0.165,0.878-0.22,1.32c-0.095,0.787-0.143,1.578-0.14,2.369c-0.006,0.99,0.084,1.977,0.27,2.947
		c0.392,2.219,1.498,4.25,3.15,5.783c1.462,1.334,3.243,2.269,5.172,2.711c1.283,0.303,2.599,0.449,3.917,0.439
		c2.057,0,3.943-0.207,5.662-0.62c1.933-0.444,3.766-1.241,5.408-2.351l-1.8-6.569c-2.04,1.5-4.32,2.25-6.839,2.25
		c-0.964,0-1.818-0.117-2.561-0.353c-0.781-0.232-1.493-0.652-2.074-1.223c-0.689-0.689-1.152-1.553-1.389-2.59
		c-0.128-0.584-0.191-1.178-0.187-1.775c0.001-0.359,0.019-0.719,0.054-1.078c0.047-0.482,0.12-0.965,0.217-1.441l5.129-25.38
		h13.591l1.439-7.11h-13.59L181.01,13.205z"/>
	<path fill="#FFC800" stroke="#000000" stroke-width="0.7087" stroke-linecap="round" d="M290.18,32.509
		c0.838-0.503,1.739-0.893,2.679-1.16c0.895-0.265,1.883-0.461,2.968-0.591c1.113-0.127,2.232-0.189,3.353-0.185
		c2.581,0,5.101,0.315,7.561,0.945c0.713,0.182,1.417,0.397,2.111,0.645c1.542,0.543,3.011,1.279,4.37,2.19l3.419-6.84
		c-0.31-0.212-0.626-0.414-0.947-0.604c-1.762-1.041-3.906-1.889-6.433-2.546c-3-0.78-6.09-1.169-9.27-1.169
		c-0.032,0-0.063,0-0.096,0c-4.28,0.009-8.043,0.639-11.29,1.89c-1.123,0.427-2.205,0.952-3.235,1.568
		c-1.673,0.989-3.142,2.29-4.324,3.832c-0.737,0.968-1.332,2.035-1.768,3.17c-0.603,1.604-0.903,3.306-0.888,5.021
		c0,0.085,0,0.171,0.002,0.257c0.017,1.002,0.13,1.93,0.341,2.781c0.317,1.363,0.973,2.624,1.907,3.666
		c1.5,1.65,3.315,2.851,5.445,3.6c2.13,0.751,4.875,1.486,8.235,2.205c0.581,0.127,1.16,0.258,1.738,0.396
		c2.729,0.648,4.804,1.297,6.227,1.946c1.097,0.5,1.842,1.209,2.236,2.13c0.227,0.552,0.338,1.143,0.329,1.739
		c0,2.219-1.064,3.945-3.195,5.176c-1.498,0.864-3.477,1.426-5.939,1.683c-1.121,0.112-2.248,0.166-3.375,0.161
		c-3.241,0-6.345-0.435-9.316-1.305c-1.531-0.447-2.915-0.98-4.151-1.598c-1.099-0.538-2.136-1.195-3.094-1.957l-3.87,6.84
		c1.98,1.62,4.755,2.939,8.325,3.959c0.476,0.137,0.953,0.264,1.433,0.381c3.23,0.777,6.541,1.163,9.862,1.15
		c1.033,0,2.064-0.035,3.095-0.107c2.194-0.156,4.224-0.484,6.089-0.985c2.388-0.614,4.654-1.63,6.702-3.003
		c0.214-0.146,0.425-0.297,0.632-0.453c1.98-1.494,3.411-3.28,4.293-5.36c0.726-1.767,1.087-3.661,1.06-5.571
		c0-1.078-0.111-2.069-0.335-2.973c-0.313-1.337-0.954-2.573-1.868-3.598c-1.471-1.619-3.256-2.789-5.356-3.51
		c-0.748-0.254-1.502-0.49-2.261-0.708c-0.819-0.237-1.702-0.473-2.649-0.709c-1.06-0.263-2.124-0.511-3.19-0.743
		c-0.591-0.125-1.181-0.256-1.769-0.395c-1.836-0.432-3.381-0.869-4.636-1.311c-0.576-0.198-1.142-0.425-1.695-0.68
		c-0.185-0.084-0.364-0.18-0.538-0.284c-1.381-0.829-2.072-2.1-2.072-3.811c-0.023-1.407,0.499-2.769,1.456-3.801
		C288.984,33.348,289.554,32.885,290.18,32.509z"/>
	<path fill="#FFC800" stroke="#000000" stroke-width="0.7087" stroke-linecap="round" d="M245.119,40.167
		c-0.342-2.575-1.192-5.056-2.503-7.297c-1.83-3.09-4.425-5.475-7.786-7.155c-3.36-1.68-7.29-2.52-11.79-2.52
		c-0.741,0-1.482,0.023-2.221,0.071c-4.28,0.241-8.447,1.464-12.179,3.573c-4.26,2.43-7.59,5.775-9.991,10.035
		c-0.974,1.729-1.756,3.56-2.331,5.459c-0.862,2.9-1.29,5.914-1.269,8.941c-0.001,0.901,0.046,1.801,0.143,2.697
		c0.285,2.861,1.188,5.625,2.647,8.102c1.859,3.121,4.47,5.535,7.83,7.246c1.846,0.928,3.809,1.602,5.837,2
		c1.96,0.386,3.955,0.575,5.953,0.564c0.822,0,1.643-0.029,2.463-0.09c4.183-0.267,8.249-1.482,11.892-3.556
		c4.23-2.431,7.545-5.79,9.945-10.08c0.898-1.604,1.633-3.295,2.194-5.048c0.955-3.039,1.429-6.21,1.406-9.396
		C245.364,42.527,245.282,41.342,245.119,40.167z M208.551,36.245c-0.058,0-0.058-0.09,0-0.09
		C208.608,36.155,208.608,36.245,208.551,36.245z"/>
	<path fill="#FFC800" stroke="#000000" stroke-width="0.7087" stroke-linecap="round" d="M145.01,63.199
		c-0.693-0.633-1.151-1.465-1.374-2.499c-0.108-0.525-0.16-1.06-0.156-1.597c0-0.16,0.005-0.321,0.015-0.482
		c0.017-0.279,0.047-0.578,0.091-0.895c0.045-0.322,0.1-0.643,0.164-0.962l6.571-33.12h-8.641l-5.04,25.289
		c-0.055,0.266-0.112,0.529-0.174,0.793c-0.424,1.824-0.99,3.479-1.698,4.964c-0.989,2.138-2.421,4.042-4.203,5.585
		c-1.724,1.469-3.749,2.545-5.931,3.154c-1.776,0.49-3.612,0.73-5.455,0.715c-0.707,0.002-1.412-0.033-2.115-0.105
		c-2.567-0.27-4.578-1.061-6.029-2.369c-0.31-0.279-0.597-0.583-0.857-0.908c-0.76-0.953-1.292-2.091-1.593-3.414
		c-0.204-0.93-0.303-1.881-0.295-2.833c0-0.708,0.064-1.534,0.193-2.476c0.073-0.527,0.159-1.052,0.257-1.574l5.31-26.82h-8.64
		l-5.311,26.73c-0.359,1.979-0.54,3.809-0.54,5.489c-0.009,1.409,0.126,2.814,0.404,4.196c0.546,2.914,2.014,5.576,4.185,7.594
		c3.061,2.82,7.231,4.23,12.511,4.23c3.84,0,7.335-0.676,10.485-2.025c3.15-1.35,5.865-3.404,8.145-6.164
		c0.003,0.02,0.007,0.039,0.011,0.059c0.411,2.367,1.711,4.486,3.634,5.926c0.249,0.188,0.507,0.363,0.773,0.527
		c1.832,1.117,4.109,1.678,6.832,1.678c2.4,0,4.53-0.359,6.39-1.08l0.811-7.021c-1.32,0.54-2.76,0.811-4.32,0.811
		C147.501,64.595,146.031,64.13,145.01,63.199z"/>
	<path fill="#FFC800" stroke="#000000" stroke-width="0.7087" stroke-linecap="round" d="M84.531,64.595
		c-1.919,0-3.39-0.465-4.41-1.396c-0.693-0.633-1.151-1.465-1.374-2.499c-0.108-0.525-0.161-1.06-0.156-1.597
		c0-0.16,0.004-0.321,0.014-0.482c0.017-0.279,0.048-0.578,0.092-0.895c0.044-0.322,0.1-0.643,0.164-0.962l6.57-33.12h-8.64
		l-1.62,8.1c-1.56-2.82-3.795-4.95-6.705-6.39c-0.172-0.085-0.346-0.167-0.52-0.246c-1.547-0.705-3.252-1.215-5.114-1.53
		c-1.604-0.263-3.227-0.392-4.852-0.384c-0.396,0-0.791,0.007-1.186,0.022c-4.443,0.119-8.785,1.349-12.629,3.577
		c-4.11,2.4-7.335,5.73-9.675,9.99c-1.027,1.873-1.833,3.859-2.399,5.919c-0.756,2.794-1.129,5.678-1.111,8.572
		c-0.004,1.324,0.093,2.648,0.291,3.959c0.358,2.471,1.175,4.851,2.409,7.02c1.8,3.12,4.29,5.506,7.47,7.155
		c1.513,0.781,3.114,1.378,4.769,1.776c2.005,0.477,4.061,0.712,6.122,0.699c1.167,0.002,2.332-0.064,3.49-0.197
		c2.379-0.264,4.707-0.88,6.905-1.828c3.09-1.35,5.745-3.314,7.964-5.895c0.481,2.459,1.71,4.395,3.691,5.805
		c0.152,0.108,0.307,0.212,0.464,0.313c1.905,1.202,4.271,1.803,7.095,1.803c0.153,0,0.305-0.002,0.458-0.004
		c2.267-0.043,4.245-0.402,5.933-1.076l0.9-7.021c-0.588,0.24-1.197,0.425-1.819,0.555C86.269,64.513,85.401,64.6,84.531,64.595z
		 M72.393,47.185c-0.277,2.589-1.028,5.104-2.217,7.419c-1.59,3.061-3.81,5.446-6.66,7.156c-0.894,0.537-1.834,0.995-2.809,1.366
		c-2.167,0.812-4.463,1.218-6.776,1.198c-0.356,0-0.712-0.006-1.068-0.022c-1.514-0.066-2.906-0.277-4.176-0.634
		c-1.96-0.518-3.76-1.514-5.24-2.898c-2.49-2.37-3.735-5.656-3.735-9.855c-0.002-0.951,0.049-1.9,0.151-2.846
		c0.27-2.653,1.043-5.23,2.279-7.594c1.62-3.06,3.84-5.445,6.66-7.155c1.006-0.611,2.071-1.118,3.18-1.512
		c2.044-0.714,4.196-1.07,6.361-1.053c0.507,0,1.015,0.015,1.521,0.046c1.481,0.092,2.839,0.321,4.073,0.688
		c1.844,0.518,3.536,1.47,4.936,2.777c0.251,0.239,0.492,0.49,0.72,0.752c1.226,1.41,2.071,3.115,2.539,5.117
		c0.297,1.321,0.441,2.675,0.431,4.03C72.562,45.174,72.506,46.182,72.393,47.185z"/>
	<path fill="#FFC800" stroke="#000000" stroke-width="0.7087" stroke-linecap="round" d="M588.615,43.635
		c-0.133-6.435-2.066-11.418-5.8-14.951c-2.544-2.378-5.679-4.03-9.081-4.781c-2.143-0.488-4.336-0.726-6.533-0.708
		c-0.793,0-1.588,0.029-2.379,0.088c-4.039,0.268-7.957,1.486-11.436,3.556c-4.051,2.43-7.23,5.775-9.54,10.035
		c-0.866,1.596-1.573,3.274-2.111,5.007c-0.919,3.015-1.376,6.151-1.354,9.302c-0.005,1.266,0.087,2.529,0.271,3.781
		c0.361,2.541,1.217,4.987,2.52,7.199c1.859,3.121,4.5,5.52,7.919,7.2c2.018,0.976,4.162,1.661,6.37,2.038
		c1.909,0.33,3.843,0.492,5.779,0.482c0.354,0,0.705-0.005,1.057-0.016c3.275-0.079,6.517-0.666,9.61-1.74
		c0.563-0.197,1.121-0.414,1.671-0.649c2.525-1.058,4.84-2.56,6.833-4.435l-3.689-6.211c-0.802,0.827-1.694,1.563-2.659,2.189
		c-1.171,0.758-2.423,1.382-3.73,1.861c-0.771,0.286-1.558,0.529-2.354,0.729c-1.969,0.481-3.99,0.721-6.018,0.711
		c-0.561,0-1.121-0.014-1.68-0.045c-7.715-0.428-12.104-3.893-13.17-10.395l39.421-7.29c0.011-0.101,0.019-0.203,0.028-0.306
		c0.04-0.505,0.061-1.152,0.061-1.944C588.621,44.108,588.618,43.871,588.615,43.635z M549.021,47.584
		c0.156-1.405,0.43-2.795,0.819-4.154c0.874-3.176,2.579-6.06,4.941-8.355c1.688-1.646,3.718-2.904,5.944-3.685
		c1.997-0.679,4.094-1.016,6.205-0.995c1.375-0.009,2.748,0.131,4.093,0.42c1.989,0.414,3.854,1.287,5.447,2.549
		c1.483,1.186,2.621,2.747,3.294,4.522c0.465,1.236,0.749,2.531,0.846,3.848L549.021,47.584z"/>
	<path fill="#FFC800" stroke="#000000" stroke-width="0.7087" stroke-linecap="round" d="M487.157,4.158
		c-0.877-0.801-1.921-1.415-3.062-1.8c-1.057-0.347-2.166-0.518-3.282-0.508c-0.269,0-0.538,0.008-0.808,0.024
		c-2.414,0.095-4.705,1.06-6.412,2.704c-0.743,0.704-1.365,1.519-1.84,2.412c-0.679,1.315-1.023,2.765-1.002,4.232
		c-0.002,0.035-0.002,0.07,0,0.105c-0.006,2.122,0.889,4.154,2.479,5.63c1.652,1.585,3.744,2.378,6.271,2.378
		c0.591,0.001,1.18-0.035,1.767-0.109c2.107-0.235,4.075-1.131,5.597-2.548c1.129-1.048,1.953-2.359,2.393-3.805
		c0.31-1.036,0.463-2.11,0.451-3.189c0.01-1.068-0.227-2.125-0.688-3.097C488.565,5.67,487.933,4.846,487.157,4.158z"/>
	<path fill="#FFC800" stroke="#000000" stroke-width="0.7087" stroke-linecap="round" d="M404.816,23.732
		c-1.56,0.271-3.089,0.693-4.565,1.262c-3.061,1.2-5.64,3.12-7.739,5.76l1.35-7.11h-8.281l-9.449,47.7h8.641l4.77-23.851
		c0.409-2.202,1.082-4.347,2.006-6.389c2.986-6.42,8.317-9.631,15.994-9.631c0.214,0,0.427,0.001,0.64,0.005
		c0.661,0.011,1.196,0.039,1.61,0.085l1.62-8.37c-0.587,0-1.174,0.011-1.759,0.034C407.929,23.296,406.317,23.464,404.816,23.732z"
		/>
	<polygon fill="#FFC800" stroke="#000000" stroke-width="0.7087" stroke-linecap="round" points="464.69,71.345 473.332,71.345 
		482.782,23.645 474.14,23.645 	"/>
	<polygon fill="#FFC800" stroke="#000000" stroke-width="0.7087" stroke-linecap="round" points="457.311,23.645 433.011,61.895 
		424.101,23.645 415.461,23.645 426.89,71.345 435.711,71.345 466.041,23.645 	"/>
	<path fill="#FFC800" stroke="#000000" stroke-width="0.7087" stroke-linecap="round" d="M363.936,28.684
		c-2.544-2.378-5.682-4.03-9.083-4.781c-2.143-0.488-4.334-0.726-6.531-0.708c-0.795,0-1.588,0.029-2.381,0.088
		c-4.037,0.268-7.957,1.486-11.436,3.556c-4.051,2.43-7.23,5.775-9.54,10.035c-0.865,1.596-1.573,3.274-2.111,5.007
		c-0.919,3.015-1.374,6.151-1.354,9.302c-0.003,1.266,0.088,2.529,0.272,3.781c0.358,2.541,1.215,4.987,2.518,7.199
		c1.859,3.121,4.5,5.52,7.92,7.2c2.017,0.976,4.161,1.661,6.369,2.038c1.908,0.33,3.844,0.492,5.781,0.482
		c0.352,0,0.705-0.005,1.057-0.016c3.273-0.079,6.514-0.666,9.607-1.74c0.564-0.197,1.124-0.414,1.674-0.649
		c2.524-1.058,4.838-2.56,6.831-4.435l-3.689-6.211c-0.802,0.827-1.692,1.563-2.659,2.189c-1.172,0.758-2.421,1.382-3.73,1.861
		c-0.77,0.286-1.556,0.529-2.354,0.729c-1.969,0.481-3.988,0.721-6.018,0.711c-0.559,0-1.119-0.014-1.68-0.045
		c-7.714-0.428-12.105-3.893-13.17-10.395l39.42-7.29c0.012-0.101,0.021-0.203,0.029-0.306c0.041-0.505,0.061-1.152,0.061-1.944
		c0-0.236-0.002-0.474-0.007-0.71C369.601,37.2,367.67,32.216,363.936,28.684z M330.14,47.584c0.156-1.405,0.431-2.795,0.819-4.154
		c0.875-3.176,2.58-6.06,4.94-8.355c1.689-1.646,3.721-2.904,5.945-3.685c1.997-0.679,4.096-1.016,6.205-0.995
		c1.377-0.009,2.748,0.131,4.094,0.42c1.988,0.414,3.854,1.287,5.446,2.549c1.483,1.186,2.62,2.747,3.294,4.522
		c0.464,1.236,0.749,2.531,0.846,3.848L330.14,47.584z"/>
	<path fill="#FFC800" stroke="#000000" stroke-width="0.7087" stroke-linecap="round" d="M500.871,40.475
		c1.619-3.06,3.855-5.445,6.705-7.155c0.895-0.538,1.835-0.995,2.809-1.366c2.166-0.812,4.463-1.218,6.776-1.199
		c1.263-0.007,2.522,0.104,3.766,0.329c3.916,0.607,7.321,3.018,9.194,6.511l7.29-4.05c-2.464-4.799-6.919-8.268-12.173-9.485
		c-2.436-0.6-4.939-0.891-7.447-0.865c-0.912-0.001-1.825,0.035-2.734,0.107c-4.132,0.293-8.146,1.501-11.756,3.537
		c-4.259,2.43-7.59,5.775-9.989,10.035c-0.974,1.729-1.757,3.56-2.331,5.459c-0.863,2.9-1.29,5.914-1.27,8.941
		c-0.003,1.126,0.07,2.251,0.221,3.367c0.334,2.643,1.209,5.188,2.569,7.477c0.582,0.969,1.251,1.881,2.001,2.727
		c1.666,1.857,3.677,3.377,5.92,4.475c1.879,0.928,3.874,1.602,5.933,2c1.987,0.386,4.011,0.575,6.036,0.564
		c4.261,0,8.251-0.869,11.971-2.609s6.69-4.141,8.91-7.201l-6.3-4.5c-1.62,2.221-3.676,3.9-6.165,5.04
		c-2.49,1.14-5.175,1.71-8.056,1.71c-0.435,0-0.868-0.01-1.303-0.033c-1.517-0.08-2.907-0.304-4.173-0.671
		c-1.905-0.522-3.656-1.501-5.1-2.851c-2.488-2.37-3.735-5.656-3.735-9.855c-0.001-0.951,0.05-1.9,0.151-2.846
		C498.862,45.415,499.635,42.838,500.871,40.475z"/>
</g>
</svg>